<svg aria-hidden="true" style="position: absolute; width: 0; height: 0; overflow: hidden;" version="1.1" xmlns="http://www.w3.org/2000/svg" xmlns:xlink="http://www.w3.org/1999/xlink">
<defs>

<symbol id="icon-instagram" viewBox="0 0 32 32">
<path fill="#000" style="fill: var(--color1, #000)" d="M31.452 5.724c-0.291-2.729-2.447-4.885-5.176-5.176-6.844-0.73-13.709-0.73-20.553 0-2.729 0.291-4.885 2.447-5.176 5.176-0.73 6.844-0.73 13.709 0 20.553 0.291 2.729 2.447 4.885 5.176 5.176 6.844 0.73 13.709 0.73 20.553 0 2.729-0.291 4.884-2.447 5.176-5.176 0.73-6.844 0.73-13.708 0-20.553z"></path>
<path fill="#000" style="fill: var(--color1, #000)" d="M29.712 6.881c-0.258-2.422-2.171-4.334-4.593-4.593-6.073-0.648-12.165-0.648-18.238 0-2.422 0.259-4.334 2.171-4.593 4.593-0.648 6.073-0.648 12.165 0 18.238 0.259 2.422 2.171 4.335 4.593 4.593 6.073 0.648 12.165 0.648 18.238 0 2.422-0.258 4.335-2.171 4.593-4.593 0.648-6.073 0.648-12.164 0-18.238z"></path>
<path fill="#000" style="fill: var(--color1, #000)" d="M0.48 25.613c0.022 0.221 0.045 0.442 0.068 0.664 0.291 2.729 2.447 4.884 5.176 5.176 6.844 0.73 13.709 0.73 20.552 0 2.729-0.291 4.885-2.447 5.176-5.176 0.024-0.221 0.046-0.442 0.069-0.664h-31.041z"></path>
<path fill="#000" style="fill: var(--color1, #000)" d="M31.452 26.276c0.393-3.678 0.574-7.361 0.544-11.044l-7.314-7.314c-0.914-1.043-2.249-1.694-3.817-1.751-3.225-0.116-6.461-0.11-9.687 0-2.679 0.092-4.553 1.893-5.033 4.54-0.085 0.467-0.136 0.941-0.202 1.411v7.759c0.037 0.252 0.091 0.502 0.108 0.755 0.107 1.61 0.769 2.989 1.828 3.922l7.443 7.443c3.653 0.026 7.306-0.156 10.954-0.545 2.729-0.291 4.884-2.447 5.176-5.176z"></path>
<path fill="#000" style="fill: var(--color1, #000)" d="M31.452 26.277c-0.291 2.729-2.447 4.885-5.176 5.176-3.647 0.389-7.301 0.571-10.953 0.545l-7.432-7.432c0.862 0.754 1.985 1.213 3.288 1.262 3.225 0.121 6.461 0.118 9.686 0.002 2.917-0.105 5.028-2.264 5.119-5.181 0.097-3.097 0.097-6.202 0-9.3-0.041-1.346-0.514-2.53-1.297-3.426l7.31 7.31c0.029 3.682-0.152 7.366-0.545 11.044z"></path>
<path fill="#000" style="fill: var(--color1, #000)" d="M19.776 12.535c-0.937-1.020-2.282-1.66-3.776-1.66-2.831 0-5.125 2.295-5.125 5.125 0 1.494 0.64 2.839 1.66 3.776l11.859 11.859c0.628-0.055 1.255-0.116 1.883-0.182 2.729-0.291 4.885-2.447 5.176-5.176 0.067-0.627 0.128-1.255 0.182-1.883l-11.859-11.859z"></path>
<path fill="#000" style="fill: var(--color1, #000)" d="M31.938 19.447l-9.544-9.544c-0.223-0.292-0.573-0.482-0.969-0.482-0.673 0-1.22 0.546-1.22 1.219 0 0.396 0.19 0.747 0.482 0.969l11.080 11.080c0.075-1.081 0.132-2.162 0.171-3.243z"></path>
<path fill="#000" style="fill: var(--color1, #000)" d="M5.943 12.119c0.067-0.471 0.117-0.944 0.202-1.411 0.48-2.647 2.354-4.447 5.033-4.54 3.226-0.111 6.461-0.117 9.687-0 2.916 0.105 5.028 2.264 5.119 5.181 0.097 3.097 0.097 6.202 0 9.3-0.091 2.917-2.202 5.076-5.119 5.181-3.225 0.116-6.462 0.119-9.687-0.002-2.916-0.11-4.933-2.274-5.128-5.195-0.017-0.253-0.071-0.503-0.108-0.755 0-2.586 0-5.173 0-7.759zM16.003 24.101c1.476 0 2.954 0.044 4.428-0.010 2.311-0.086 3.733-1.465 3.787-3.774 0.067-2.877 0.067-5.758 0-8.636-0.054-2.309-1.477-3.72-3.787-3.769-2.932-0.062-5.868-0.062-8.8 0-2.293 0.048-3.719 1.431-3.781 3.714-0.079 2.914-0.079 5.832 0 8.746 0.062 2.283 1.488 3.634 3.781 3.719 1.456 0.054 2.915 0.010 4.372 0.010z"></path>
<path fill="#fff" style="fill: var(--color2, #fff)" d="M5.943 12.119c0.067-0.471 0.117-0.944 0.202-1.411 0.48-2.647 2.354-4.447 5.033-4.54 3.226-0.111 6.461-0.117 9.687-0 2.916 0.105 5.028 2.264 5.119 5.181 0.097 3.097 0.097 6.202 0 9.3-0.091 2.917-2.202 5.076-5.119 5.181-3.225 0.116-6.462 0.119-9.687-0.002-2.916-0.11-4.933-2.274-5.128-5.195-0.017-0.253-0.071-0.503-0.108-0.755 0-2.586 0-5.173 0-7.759zM16.003 24.101c1.476 0 2.954 0.044 4.428-0.010 2.311-0.086 3.733-1.465 3.787-3.774 0.067-2.877 0.067-5.758 0-8.636-0.054-2.309-1.477-3.72-3.787-3.769-2.932-0.062-5.868-0.062-8.8 0-2.293 0.048-3.719 1.431-3.781 3.714-0.079 2.914-0.079 5.832 0 8.746 0.062 2.283 1.488 3.634 3.781 3.719 1.456 0.054 2.915 0.010 4.372 0.010z"></path>
<path fill="#fff" style="fill: var(--color2, #fff)" d="M16 10.875c-2.831 0-5.125 2.295-5.125 5.125s2.295 5.126 5.125 5.126c2.831 0 5.126-2.295 5.126-5.126s-2.295-5.125-5.126-5.125zM16 19.361c-1.856 0-3.361-1.505-3.361-3.361s1.505-3.361 3.361-3.361c1.856 0 3.361 1.505 3.361 3.361s-1.505 3.361-3.361 3.361z"></path>
<path fill="#fff" style="fill: var(--color2, #fff)" d="M22.644 10.641c0 0.673-0.546 1.219-1.219 1.219s-1.22-0.546-1.22-1.219c0-0.674 0.546-1.219 1.22-1.219s1.219 0.546 1.219 1.219z"></path>
</symbol>

<symbol id="icon-logo" viewBox="0 0 91 32">
<path fill="#111518" style="fill: var(--color3, #111518)" d="M13.608 4.836v12.942h-3.661v-5.047h-4.992v5.047h-3.661v-12.942h3.661v4.863h4.992v-4.863h3.661zM27.006 12.786c0 0.025-0.018 0.314-0.055 0.869h-7.285c0.148 0.518 0.431 0.918 0.851 1.202 0.431 0.271 0.968 0.407 1.609 0.407 0.481 0 0.894-0.068 1.239-0.203 0.357-0.136 0.715-0.357 1.072-0.666l1.849 1.923c-0.974 1.085-2.397 1.627-4.271 1.627-1.171 0-2.2-0.222-3.088-0.666s-1.578-1.060-2.071-1.849c-0.481-0.789-0.721-1.683-0.721-2.681 0-0.986 0.234-1.867 0.703-2.644 0.481-0.789 1.14-1.405 1.978-1.849s1.781-0.666 2.829-0.666c0.998 0 1.904 0.21 2.718 0.629 0.814 0.407 1.454 1.005 1.923 1.793 0.481 0.777 0.721 1.701 0.721 2.773zM21.663 10.086c-0.542 0-0.998 0.154-1.368 0.462-0.357 0.308-0.586 0.727-0.684 1.257h4.105c-0.099-0.53-0.333-0.949-0.703-1.257-0.357-0.308-0.807-0.462-1.35-0.462zM29.365 4.059h3.513v13.719h-3.513v-13.719zM35.901 4.059h3.513v13.719h-3.513v-13.719z"></path>
<path fill="#ff6b09" style="fill: var(--color4, #ff6b09)" d="M5.547 26.596v3.982h-0.922v-1.633h-1.809v1.633h-0.922v-3.982h0.922v1.57h1.809v-1.57h0.922zM10.596 29.838v0.74h-3.083v-3.982h3.009v0.74h-2.094v0.865h1.849v0.717h-1.849v0.922h2.167zM12.354 26.596h0.922v3.231h1.997v0.751h-2.918v-3.982zM16.811 26.596h0.922v3.231h1.997v0.751h-2.918v-3.982zM21.268 26.596h0.922v3.982h-0.922v-3.982zM25.467 30.646c-0.315 0-0.62-0.042-0.916-0.125-0.292-0.087-0.527-0.199-0.705-0.336l0.313-0.694c0.171 0.125 0.374 0.226 0.609 0.302s0.47 0.114 0.705 0.114c0.262 0 0.455-0.038 0.58-0.114 0.125-0.080 0.188-0.184 0.188-0.313 0-0.095-0.038-0.173-0.114-0.233-0.072-0.064-0.167-0.116-0.284-0.154-0.114-0.038-0.269-0.080-0.466-0.125-0.303-0.072-0.552-0.144-0.745-0.216s-0.36-0.188-0.501-0.347c-0.137-0.159-0.205-0.372-0.205-0.637 0-0.231 0.063-0.44 0.188-0.626 0.125-0.19 0.313-0.339 0.563-0.449 0.254-0.11 0.563-0.165 0.927-0.165 0.254 0 0.502 0.030 0.745 0.091s0.455 0.148 0.637 0.262l-0.284 0.7c-0.368-0.209-0.736-0.313-1.104-0.313-0.258 0-0.449 0.042-0.575 0.125-0.121 0.083-0.182 0.193-0.182 0.33s0.070 0.239 0.21 0.307c0.144 0.064 0.362 0.129 0.654 0.193 0.303 0.072 0.552 0.144 0.745 0.216s0.358 0.186 0.495 0.341c0.14 0.156 0.21 0.366 0.21 0.631 0 0.228-0.064 0.436-0.193 0.626-0.125 0.186-0.315 0.334-0.569 0.444s-0.563 0.165-0.927 0.165zM32.463 26.596v3.982h-0.922v-1.633h-1.809v1.633h-0.922v-3.982h0.922v1.57h1.809v-1.57h0.922z"></path>
<path fill="#111518" style="fill: var(--color3, #111518)" d="M40.148 29.838v0.74h-3.083v-3.982h3.009v0.74h-2.093v0.865h1.849v0.717h-1.849v0.922h2.167zM45.557 26.596v3.982h-0.757l-1.985-2.418v2.418h-0.91v-3.982h0.762l1.98 2.418v-2.418h0.91zM50.214 28.524h0.842v1.616c-0.216 0.163-0.467 0.288-0.751 0.375s-0.571 0.131-0.859 0.131c-0.413 0-0.785-0.087-1.115-0.262-0.33-0.178-0.59-0.423-0.779-0.734-0.186-0.315-0.279-0.669-0.279-1.064s0.093-0.747 0.279-1.058c0.19-0.315 0.451-0.559 0.785-0.734 0.334-0.178 0.709-0.267 1.126-0.267 0.349 0 0.666 0.059 0.95 0.176s0.523 0.288 0.717 0.512l-0.592 0.546c-0.284-0.3-0.628-0.449-1.030-0.449-0.254 0-0.48 0.053-0.677 0.159s-0.351 0.256-0.461 0.449c-0.11 0.193-0.165 0.415-0.165 0.666 0 0.247 0.055 0.466 0.165 0.66s0.262 0.345 0.455 0.455c0.197 0.106 0.421 0.159 0.671 0.159 0.266 0 0.504-0.057 0.717-0.171v-1.166zM52.936 26.596h0.922v3.231h1.997v0.751h-2.918v-3.982zM57.394 26.596h0.922v3.982h-0.922v-3.982zM61.593 30.646c-0.315 0-0.62-0.042-0.916-0.125-0.292-0.087-0.527-0.199-0.705-0.336l0.313-0.694c0.171 0.125 0.374 0.226 0.609 0.302s0.47 0.114 0.705 0.114c0.262 0 0.455-0.038 0.58-0.114 0.125-0.080 0.188-0.184 0.188-0.313 0-0.095-0.038-0.173-0.114-0.233-0.072-0.064-0.167-0.116-0.284-0.154-0.114-0.038-0.269-0.080-0.467-0.125-0.303-0.072-0.552-0.144-0.745-0.216s-0.36-0.188-0.501-0.347c-0.137-0.159-0.205-0.372-0.205-0.637 0-0.231 0.063-0.44 0.188-0.626 0.125-0.19 0.313-0.339 0.563-0.449 0.254-0.11 0.563-0.165 0.927-0.165 0.254 0 0.503 0.030 0.745 0.091s0.455 0.148 0.637 0.262l-0.284 0.7c-0.368-0.209-0.736-0.313-1.104-0.313-0.258 0-0.449 0.042-0.575 0.125-0.121 0.083-0.182 0.193-0.182 0.33s0.070 0.239 0.211 0.307c0.144 0.064 0.362 0.129 0.654 0.193 0.303 0.072 0.552 0.144 0.745 0.216s0.358 0.186 0.495 0.341c0.14 0.156 0.211 0.366 0.211 0.631 0 0.228-0.064 0.436-0.193 0.626-0.125 0.186-0.315 0.334-0.569 0.444s-0.563 0.165-0.927 0.165zM68.588 26.596v3.982h-0.922v-1.633h-1.809v1.633h-0.922v-3.982h0.922v1.57h1.809v-1.57h0.922z"></path>
<path fill="#111518" style="fill: var(--color3, #111518)" d="M74.263 14.949v2.829h-10.391v-12.942h10.15v2.829h-6.527v2.182h5.75v2.736h-5.75v2.367h6.767zM89.348 4.836v12.942h-3.014l-5.713-6.896v6.896h-3.587v-12.942h3.014l5.713 6.896v-6.896h3.587z"></path>
<path fill="#ff6b09" style="fill: var(--color4, #ff6b09)" d="M58.695 11.062c-0.189-0.423-0.45-0.84-0.831-1.322-0.962-1.209-1.255-3.905-1.258-3.931-0.013-0.129-0.104-0.236-0.225-0.275-0.124-0.039-0.258-0.003-0.346 0.094-1.147 1.283-0.665 3.265-0.404 4.057 0.072 0.217 0.15 0.472 0.205 0.731 0.424 2.091-0.394 3.038-0.587 3.229-0.186 0.052-0.313 0.026-0.43-0.1-0.404-0.443-0.538-1.894-0.349-3.785 0.039-0.385 0.029-0.731-0.026-1.054-0.399-2.324-1.86-3.815-2.233-4.338-1.023-1.513-1.128-4.031-1.131-4.053-0.003-0.12-0.072-0.226-0.179-0.278-0.104-0.052-0.231-0.045-0.329 0.023-1.708 1.16-1.561 3.956-1.323 5.518 0.055 0.362 0.163 0.731 0.349 1.196 0.662 1.665-0.13 3.814-0.137 3.834s-0.013 0.036-0.016 0.055c-0.101 0.53-0.27 0.847-0.46 0.847-0.020 0-0.039-0.003-0.062-0.010-0.231-0.049-0.352-0.294-0.355-0.507-0.013-2.757-2.78-3.685-2.81-3.695-0.124-0.039-0.261-0.003-0.345 0.097-0.088 0.1-0.104 0.239-0.046 0.356 0.033 0.068 0.137 0.365 0.065 1.416-0.062 0.944-0.235 1.878-0.512 2.773-0.658 2.146-0.554 4.179-0.548 4.276 0.506 5.505 8.423 6.469 13.122 3.368 0.515-0.339 0.935-0.727 1.245-1.154 1.734-2.392 0.714-5.64-0.046-7.366zM46.652 16.321c0.010 0.178-0.127 0.33-0.306 0.339h-0.020c-0.173 0-0.316-0.133-0.326-0.304-0.029-0.472-0.023-0.966 0.013-1.503 0.013-0.178 0.169-0.31 0.349-0.301 0.179 0.013 0.316 0.168 0.303 0.346-0.036 0.511-0.042 0.976-0.013 1.422zM46.811 13.457c-0.020 0.165-0.16 0.284-0.323 0.284-0.013 0-0.026 0-0.042-0.003-0.176-0.023-0.303-0.181-0.284-0.359l0.156-1.248c0.023-0.175 0.182-0.301 0.365-0.281 0.179 0.023 0.306 0.184 0.284 0.362l-0.156 1.245z"></path>
<path fill="#ff6b09" style="fill: var(--color4, #ff6b09)" d="M56.49 4.422c-0.178-0.027-0.3-0.192-0.272-0.368 0.020-0.131 0.138-0.804 0.458-1.142 0.123-0.13 0.329-0.137 0.461-0.015s0.138 0.327 0.015 0.457c-0.135 0.143-0.25 0.553-0.289 0.798-0.027 0.174-0.191 0.297-0.372 0.27z"></path>
<path fill="#ff6b09" style="fill: var(--color4, #ff6b09)" d="M44.608 6.032c-0.062-0.24-0.217-0.637-0.366-0.766-0.135-0.118-0.149-0.322-0.030-0.456s0.324-0.148 0.46-0.030c0.351 0.305 0.535 0.963 0.568 1.092 0.045 0.173-0.060 0.349-0.235 0.393-0.178 0.044-0.352-0.063-0.397-0.232z"></path>
</symbol>

<symbol id="icon-phone" viewBox="0 0 32 32">
<path fill="#ff6b09" style="fill: var(--color4, #ff6b09)" d="M4.657 0.002c-0.515 0.024-1.021 0.243-1.392 0.651l-2.595 2.852c0.004-0.008-0.010-0.007-0.084 0.097-0.039 0.054-0.070 0.113-0.090 0.176-1.056 3.364-0.348 7.064 1.376 10.584s4.475 6.888 7.633 9.651c3.158 2.764 6.721 4.926 10.119 5.999s6.692 1.058 9.133-0.713c0.026-0.020 0.051-0.041 0.075-0.065 0.064-0.064 0.066-0.072 0.056-0.062l0.010-0.012 2.582-2.84c0.742-0.816 0.682-2.098-0.134-2.84l-6.126-5.571c-0.816-0.742-2.098-0.683-2.84 0.133l-2.772 3.048c-2.25-0.652-4.173-1.756-6.023-3.439s-3.132-3.494-3.993-5.673l2.771-3.048c0.742-0.816 0.683-2.098-0.133-2.84l-6.126-5.571c-0.408-0.371-0.933-0.542-1.448-0.518l-0.001 0zM4.715 1.253c0.19-0.008 0.383 0.057 0.541 0.201l6.126 5.571c0.316 0.287 0.337 0.745 0.050 1.061l-3.063 3.366c-0.077 0.085-0.129 0.19-0.151 0.302s-0.013 0.229 0.027 0.337c0.93 2.537 2.429 4.618 4.493 6.495s4.275 3.174 6.889 3.859c0.111 0.029 0.228 0.027 0.339-0.005s0.21-0.095 0.287-0.18l3.064-3.367c0.287-0.315 0.744-0.336 1.060-0.049l6.127 5.571c0.316 0.287 0.336 0.744 0.049 1.060l-2.561 2.815c-2.003 1.438-4.826 1.519-7.986 0.521-3.173-1.002-6.617-3.076-9.666-5.744s-5.702-5.926-7.332-9.254c-1.614-3.294-2.199-6.624-1.312-9.559l2.502-2.75c0.143-0.158 0.33-0.242 0.52-0.251l0 0z"></path>
</symbol>

</defs>
</svg>